<svg xmlns="http://www.w3.org/2000/svg" viewBox="0 0 660 200"><defs><style>.cls-1{isolation:isolate;}.cls-2{fill:#3d4a4c;}.cls-3{fill:#e6e6e6;}.cls-4{fill:#798cc6;}.cls-4,.cls-5{opacity:0.9;}.cls-4,.cls-5,.cls-6{mix-blend-mode:multiply;}.cls-5{fill:#19bbbd;}.cls-6{fill:#ec117e;opacity:0.75;}</style></defs><title>politwoops logo outlines</title><g class="cls-1"><g id="Layer_1" data-name="Layer 1"><path class="cls-2" d="M267,75.75q5.29,4.5,5.29,13.82t-5.44,13.64q-5.44,4.32-16.6,4.32h-6.7v14H232.29V71.25h17.78Q261.66,71.25,267,75.75Zm-8.24,19.8q2-2.27,2-6.62t-2.63-6.19q-2.63-1.84-8.17-1.84h-6.41V97.82h7.56Q256.69,97.82,258.71,95.55Z"/><path class="cls-2" d="M317.46,102.21a19.15,19.15,0,0,1-5.83,14.18,21.51,21.51,0,0,1-29.3,0,20.21,20.21,0,0,1,0-28.4,21.42,21.42,0,0,1,29.3,0A19.27,19.27,0,0,1,317.46,102.21Zm-30.1,0a11.1,11.1,0,0,0,2.7,7.74,9.49,9.49,0,0,0,13.82,0,11.11,11.11,0,0,0,2.7-7.74,11.24,11.24,0,0,0-2.7-7.78,9.41,9.41,0,0,0-13.82,0A11.23,11.23,0,0,0,287.37,102.21Z"/><path class="cls-2" d="M335.53,121.58h-10.8V68.16h10.8Z"/><path class="cls-2" d="M345.94,77.91a6.43,6.43,0,1,1,4.5,1.84A6.12,6.12,0,0,1,345.94,77.91Zm9.9,43.67H345V82.85h10.8Z"/><path class="cls-2" d="M378.23,90.62V108a5,5,0,0,0,1.15,3.49,3.58,3.58,0,0,0,2.74,1.26,6.24,6.24,0,0,0,5.11-2.74l4,7.56q-5,4.61-10.62,4.61a13.15,13.15,0,0,1-9.43-3.67q-3.85-3.67-3.85-10V90.62h-4.54V82.85h4.54V71.25h10.87V82.85h9.36v7.78Z"/><path class="cls-2" d="M416.46,121.58H405.3L392.12,82.85h11.16l7.56,23.4,7.56-23.4h10.44l7.56,23.4L444,82.85h11.23L442,121.58H430.79l-7.13-21.1Z"/><path class="cls-2" d="M498.54,102.21a19.15,19.15,0,0,1-5.83,14.18,21.51,21.51,0,0,1-29.3,0,20.21,20.21,0,0,1,0-28.4,21.42,21.42,0,0,1,29.3,0A19.27,19.27,0,0,1,498.54,102.21Zm-30.1,0a11.1,11.1,0,0,0,2.7,7.74A9.49,9.49,0,0,0,485,110a11.1,11.1,0,0,0,2.7-7.74,11.24,11.24,0,0,0-2.7-7.78,9.41,9.41,0,0,0-13.82,0A11.24,11.24,0,0,0,468.44,102.21Z"/><path class="cls-2" d="M544.54,102.21a19.15,19.15,0,0,1-5.83,14.18,21.51,21.51,0,0,1-29.3,0,20.21,20.21,0,0,1,0-28.4,21.42,21.42,0,0,1,29.3,0A19.27,19.27,0,0,1,544.54,102.21Zm-30.1,0a11.1,11.1,0,0,0,2.7,7.74A9.49,9.49,0,0,0,531,110a11.1,11.1,0,0,0,2.7-7.74,11.24,11.24,0,0,0-2.7-7.78,9.41,9.41,0,0,0-13.82,0A11.24,11.24,0,0,0,514.45,102.21Z"/><path class="cls-2" d="M574.35,82.2q6.77,0,12.06,5.65a20,20,0,0,1,5.29,14.22,20.37,20.37,0,0,1-5.29,14.33A16.33,16.33,0,0,1,574,122.16a13.64,13.64,0,0,1-11.41-5.69v19.08h-10.8V82.85h10.8v4.32A16,16,0,0,1,574.35,82.2Zm-11.88,20.05a11.23,11.23,0,0,0,2.63,7.7,8.18,8.18,0,0,0,6.37,3,8.73,8.73,0,0,0,6.55-3,10.74,10.74,0,0,0,2.81-7.67,11.59,11.59,0,0,0-2.74-7.85,8.38,8.38,0,0,0-6.55-3.17,8.1,8.1,0,0,0-6.44,3.13A11.79,11.79,0,0,0,562.47,102.25Z"/><path class="cls-2" d="M627.85,109.52a11.28,11.28,0,0,1-4.21,9.18,16.3,16.3,0,0,1-10.69,3.46,28.63,28.63,0,0,1-9-1.55,26.52,26.52,0,0,1-8.42-4.57l4.75-6.77A20.69,20.69,0,0,0,613.16,114a5.84,5.84,0,0,0,3.31-.83,2.54,2.54,0,0,0,1.22-2.2,3.17,3.17,0,0,0-1.69-2.52,19.15,19.15,0,0,0-4.9-2.16q-3.21-1-4.9-1.73a27.45,27.45,0,0,1-3.85-2.09,8.94,8.94,0,0,1-4.39-8.1,10.62,10.62,0,0,1,4.32-8.75q4.32-3.38,11.16-3.38a24.35,24.35,0,0,1,13.68,4.61l-4,7.2a17.69,17.69,0,0,0-10-3.46q-5,0-5,2.74a2.63,2.63,0,0,0,1.58,2.38,32.05,32.05,0,0,0,5.26,2q3.67,1.15,5.22,1.76a26.37,26.37,0,0,1,3.71,1.91Q627.85,103.8,627.85,109.52Z"/><circle class="cls-3" cx="29.9" cy="20" r="8"/><circle class="cls-3" cx="29.9" cy="100" r="8"/><circle class="cls-3" cx="29.9" cy="180" r="8"/><circle class="cls-3" cx="109.9" cy="20" r="8"/><circle class="cls-3" cx="109.9" cy="100" r="8"/><circle class="cls-3" cx="109.9" cy="180" r="8"/><circle class="cls-3" cx="189.9" cy="20" r="8"/><circle class="cls-3" cx="189.9" cy="100" r="8"/><circle class="cls-3" cx="189.9" cy="180" r="8"/><path class="cls-4" d="M190.17,187.26l-79-.3-8-8V86.09l8-8h79l8,8v93.16ZM119.2,171l63,.24V94.09h-63Z"/><path class="cls-5" d="M116.09,121.67l-14.18-5.08V20l8-8h79.3l6.18,13.08ZM117.9,28V94.24L172.29,28Z"/><path class="cls-6" d="M110.16,180c-22.56,0-43.89-4.29-60.07-12.08-18-8.69-28-20.93-28-34.47S32,107.67,50.08,99C66.26,91.19,87.6,86.9,110.16,86.9S154,91.19,170.23,99c18,8.69,28,20.93,28,34.47s-9.93,25.78-28,34.47C154,175.71,132.71,180,110.16,180Zm0-77.1c-42.46,0-72,16.1-72,30.55S67.7,164,110.16,164s72-16.1,72-30.55S152.61,102.9,110.16,102.9Z"/></g></g></svg>