<?xml version="1.0" standalone="no"?>
<!DOCTYPE svg PUBLIC "-//W3C//DTD SVG 20010904//EN"
 "http://www.w3.org/TR/2001/REC-SVG-20010904/DTD/svg10.dtd">
<svg version="1.0" xmlns="http://www.w3.org/2000/svg"
 width="512.000000pt" height="512.000000pt" viewBox="0 0 512.000000 512.000000"
 preserveAspectRatio="xMidYMid meet">
<metadata>
Created by potrace 1.15, written by Peter Selinger 2001-2017
</metadata>
<g transform="translate(0.000000,512.000000) scale(0.100000,-0.100000)"
fill="#000000" stroke="none">
<path d="M2350 5113 c-318 -31 -612 -111 -888 -244 -179 -86 -286 -150 -432
-260 -208 -158 -361 -311 -519 -519 -110 -146 -174 -253 -260 -432 -113 -235
-178 -447 -223 -719 -32 -194 -32 -564 0 -758 73 -447 238 -833 503 -1179 171
-222 469 -491 699 -629 624 -374 1349 -470 2048 -269 414 119 769 332 1088
650 214 214 352 404 479 656 398 793 361 1715 -98 2480 -138 230 -407 528
-629 699 -345 264 -736 432 -1173 502 -127 20 -482 34 -595 22z m38 -860 l-3
-498 -412 -3 c-336 -2 -413 0 -413 11 0 16 54 151 103 259 152 332 392 597
641 705 95 41 87 90 84 -474z m475 451 c102 -51 180 -110 273 -206 160 -164
266 -337 385 -627 22 -52 39 -100 39 -108 0 -11 -72 -13 -412 -11 l-413 3 -3
499 -2 499 30 -7 c17 -3 63 -22 103 -42z m-1306 -206 c-105 -149 -229 -393
-307 -608 -21 -58 -41 -113 -45 -122 -7 -17 -28 -18 -256 -18 -193 0 -249 3
-249 13 0 23 164 231 264 335 158 164 354 313 550 418 45 24 82 44 84 44 2 0
-17 -28 -41 -62z m2218 -84 c134 -88 268 -199 381 -316 100 -104 264 -312 264
-335 0 -10 -56 -13 -249 -13 l-249 0 -11 28 c-6 15 -26 70 -44 122 -71 198
-201 452 -305 599 l-46 65 85 -46 c47 -24 125 -71 174 -104z m-2669 -1030
c-19 -73 -57 -358 -68 -496 l-12 -158 -339 0 -339 0 7 68 c16 151 73 398 124
531 10 25 21 54 24 64 6 16 30 17 308 17 l301 0 -6 -26z m1284 -314 l0 -340
-511 0 -511 0 6 98 c12 174 59 506 81 570 3 9 106 12 470 12 l465 0 0 -340z
m1292 250 c20 -100 54 -366 64 -497 l7 -93 -512 0 -511 0 0 340 0 340 467 -2
467 -3 18 -85z m949 35 c58 -149 118 -400 134 -557 l7 -68 -339 0 -339 0 -12
158 c-11 139 -49 423 -68 496 l-6 26 302 -2 302 -3 19 -50z m-3593 -1122 c11
-140 49 -424 68 -497 l6 -26 -302 2 -302 3 -19 50 c-58 149 -118 400 -134 558
l-7 67 339 0 339 0 12 -157z m1352 -183 l0 -340 -467 2 -468 3 -21 112 c-25
130 -50 325 -60 466 l-6 97 511 0 511 0 0 -340z m1356 243 c-10 -141 -35 -336
-60 -466 l-21 -112 -468 -3 -467 -2 0 340 0 340 511 0 511 0 -6 -97z m1019 30
c-16 -158 -76 -409 -134 -558 l-19 -50 -302 -3 -302 -2 6 26 c19 73 57 357 68
497 l12 157 339 0 339 0 -7 -67z m-3556 -980 c6 -16 26 -71 45 -123 73 -203
200 -452 304 -599 l46 -65 -85 46 c-198 105 -395 254 -555 420 -100 104 -264
312 -264 336 0 9 56 12 249 12 l249 0 11 -27z m1179 -480 l2 -503 -67 25
c-245 93 -505 373 -660 713 -49 108 -103 243 -103 259 0 11 77 13 413 11 l412
-3 3 -502z m1172 494 c0 -15 -59 -161 -108 -269 -151 -330 -413 -611 -655
-702 l-67 -26 0 498 c0 274 3 502 7 505 3 4 190 7 415 7 333 0 408 -2 408 -13z
m860 1 c0 -24 -164 -232 -264 -336 -160 -166 -357 -315 -553 -420 l-83 -44 58
89 c117 176 218 377 289 573 18 52 38 107 44 123 l11 27 249 0 c193 0 249 -3
249 -12z"/>
</g>
</svg>
