<svg id="svg" version="1.1" width="750" height="750" xmlns="http://www.w3.org/2000/svg" xmlns:xlink="http://www.w3.org/1999/xlink" style="display: block;"><g id="svgg"><path id="path0" d="M192.933 8.398 C 196.233 8.492,201.633 8.492,204.933 8.398 C 208.233 8.305,205.533 8.228,198.933 8.228 C 192.333 8.228,189.633 8.305,192.933 8.398 M182.007 8.916 C 182.818 9.039,184.018 9.035,184.674 8.909 C 185.330 8.782,184.667 8.682,183.200 8.686 C 181.733 8.690,181.197 8.793,182.007 8.916 M212.676 8.920 C 213.635 9.039,215.075 9.036,215.876 8.914 C 216.678 8.793,215.893 8.696,214.133 8.699 C 212.373 8.702,211.718 8.801,212.676 8.920 M176.667 9.434 C 177.180 9.568,178.020 9.568,178.533 9.434 C 179.047 9.300,178.627 9.190,177.600 9.190 C 176.573 9.190,176.153 9.300,176.667 9.434 M218.533 9.443 C 219.193 9.570,220.273 9.570,220.933 9.443 C 221.593 9.316,221.053 9.212,219.733 9.212 C 218.413 9.212,217.873 9.316,218.533 9.443 M229.333 10.932 C 362.700 34.104,428.615 185.467,354.403 298.133 C 283.337 406.023,126.425 410.814,48.730 307.467 C -11.255 227.676,3.025 112.146,80.533 50.180 C 85.800 45.969,88.947 43.228,86.933 44.606 C 51.292 68.986,21.503 117.014,13.375 163.200 C -13.429 315.507,145.198 434.219,283.149 365.092 C 420.332 296.350,422.074 100.953,286.144 29.309 C 268.274 19.891,234.661 9.326,223.564 9.641 C 222.777 9.663,225.373 10.244,229.333 10.932 M120.533 24.800 C 119.800 25.219,119.440 25.562,119.733 25.562 C 120.027 25.562,120.867 25.219,121.600 24.800 C 122.333 24.381,122.693 24.038,122.400 24.038 C 122.107 24.038,121.267 24.381,120.533 24.800 M107.600 31.238 C 105.606 32.320,105.728 32.771,107.733 31.733 C 108.613 31.278,109.333 30.792,109.333 30.653 C 109.333 30.310,109.276 30.329,107.600 31.238 M103.867 33.372 C 101.873 34.453,101.994 34.904,104.000 33.867 C 104.880 33.412,105.600 32.925,105.600 32.786 C 105.600 32.443,105.543 32.462,103.867 33.372 M99.867 35.795 C 98.049 36.959,97.461 37.741,99.067 36.858 C 100.290 36.185,102.207 34.703,101.867 34.693 C 101.720 34.688,100.820 35.184,99.867 35.795 M93.724 39.753 C 92.629 40.496,91.733 41.220,91.733 41.360 C 91.733 41.500,92.693 40.980,93.867 40.203 C 95.730 38.970,96.359 38.400,95.857 38.400 C 95.779 38.400,94.819 39.009,93.724 39.753 M89.333 42.980 L 87.733 44.355 89.467 43.208 C 90.420 42.577,91.200 41.957,91.200 41.830 C 91.200 41.431,90.974 41.570,89.333 42.980 " stroke="none" fill="#000000" fill-rule="evenodd"></path><path id="path1" d="M185.067 37.125 C 176.573 38.126,173.276 38.621,167.467 39.772 C 53.061 62.428,1.447 197.733,71.686 290.861 C 142.134 384.266,287.084 371.503,339.674 267.264 C 388.977 169.541,329.025 54.651,220.075 38.068 C 214.906 37.281,189.544 36.598,185.067 37.125 M258.406 74.080 C 258.083 77.020,257.636 79.609,257.411 79.833 C 256.850 80.394,251.660 77.605,249.957 75.827 L 248.565 74.374 253.482 71.398 C 259.462 67.778,259.118 67.591,258.406 74.080 M242.400 98.233 C 244.453 99.299,247.573 100.582,249.333 101.084 C 251.093 101.586,252.601 102.055,252.683 102.127 C 253.014 102.411,192.427 196.525,191.988 196.408 C 191.521 196.284,170.966 183.213,146.566 167.524 L 133.933 159.400 138.033 155.293 C 142.477 150.842,145.089 146.558,146.902 140.751 L 148.000 137.236 166.133 148.855 L 184.267 160.475 186.933 156.323 C 188.400 154.039,198.815 137.764,210.079 120.155 L 230.557 88.140 234.612 92.217 C 237.316 94.936,239.911 96.940,242.400 98.233 M121.068 131.765 C 123.547 132.076,125.663 132.419,125.772 132.528 C 126.136 132.891,122.582 139.094,121.342 140.258 L 120.117 141.409 117.308 136.705 C 115.763 134.117,114.403 131.820,114.285 131.600 C 113.993 131.055,115.743 131.097,121.068 131.765 M249.229 224.667 C 250.630 231.193,251.767 236.693,251.755 236.889 C 251.736 237.198,247.097 238.400,245.923 238.400 C 245.689 238.400,244.944 235.700,244.267 232.400 C 242.670 224.613,242.476 224.520,241.396 231.023 C 240.338 237.393,240.731 236.618,238.336 237.065 L 236.406 237.426 233.136 232.727 C 229.405 227.364,229.407 227.361,231.200 235.303 C 231.933 238.552,232.533 241.260,232.533 241.320 C 232.533 241.535,226.581 242.759,226.403 242.581 C 225.968 242.145,221.007 218.602,221.311 218.414 C 221.497 218.299,223.144 217.860,224.971 217.438 L 228.293 216.670 231.580 221.268 C 237.279 229.240,236.484 229.183,237.856 221.715 C 239.275 213.990,239.869 213.335,245.874 212.863 C 246.503 212.814,247.242 215.412,249.229 224.667 M218.052 221.727 C 218.711 224.814,219.164 224.431,213.226 225.812 L 208.267 226.965 208.452 228.549 C 208.554 229.421,208.726 230.226,208.836 230.339 C 209.021 230.531,213.844 229.681,216.288 229.026 C 217.233 228.772,217.449 229.089,217.930 231.438 L 218.484 234.142 216.575 234.621 C 215.525 234.884,213.707 235.316,212.533 235.581 C 210.583 236.022,210.413 236.198,210.552 237.632 C 210.830 240.488,210.823 240.485,215.294 239.426 C 221.509 237.952,221.588 237.969,222.266 240.933 C 222.585 242.325,222.806 243.493,222.756 243.527 C 221.809 244.179,205.724 247.172,205.566 246.725 C 204.970 245.049,200.534 223.730,200.686 223.275 C 200.829 222.847,214.513 219.450,216.890 219.252 C 217.233 219.223,217.756 220.337,218.052 221.727 M198.207 226.156 C 198.510 227.635,198.617 228.924,198.446 229.019 C 198.274 229.115,196.913 229.479,195.421 229.829 L 192.708 230.464 194.721 239.632 C 196.954 249.799,197.024 249.274,193.333 250.044 C 189.972 250.746,190.301 251.281,188.304 241.867 C 186.075 231.363,186.250 231.858,184.883 232.185 C 184.251 232.337,182.852 232.620,181.774 232.815 L 179.814 233.170 179.427 230.585 C 179.213 229.163,179.065 227.892,179.096 227.759 C 179.145 227.554,195.494 223.713,197.095 223.531 C 197.403 223.495,197.904 224.677,198.207 226.156 M175.861 229.616 C 176.948 230.378,178.124 233.300,178.130 235.260 C 178.133 235.978,172.351 237.813,172.016 237.200 C 171.976 237.127,171.716 236.571,171.438 235.964 C 170.595 234.124,166.271 235.239,166.502 237.238 C 166.665 238.655,166.711 238.670,172.267 239.088 C 179.154 239.606,179.852 240.129,180.952 245.600 C 182.237 251.986,181.711 252.603,173.472 254.395 C 164.975 256.243,163.576 255.807,162.323 250.923 L 161.713 248.544 163.657 248.059 C 168.534 246.841,168.533 246.841,168.533 248.007 C 168.533 249.427,169.426 249.730,172.023 249.191 C 173.906 248.799,174.133 248.583,174.133 247.176 L 174.133 245.600 168.646 245.208 C 161.868 244.723,161.292 244.427,160.303 240.921 C 158.062 232.966,158.603 232.088,166.933 230.175 C 173.710 228.618,174.376 228.576,175.861 229.616 M267.733 241.834 C 267.733 242.182,272.541 264.127,272.833 265.113 C 273.027 265.769,272.394 266.114,270.021 266.645 L 266.959 267.330 261.205 261.265 C 257.007 256.839,255.526 255.560,255.725 256.533 C 255.875 257.267,256.478 259.976,257.066 262.554 C 258.581 269.205,258.601 269.115,255.424 269.877 C 253.897 270.243,252.526 270.325,252.283 270.064 C 251.900 269.651,246.933 247.788,246.933 246.515 C 246.933 246.235,248.353 245.726,250.088 245.385 L 253.243 244.764 258.439 250.120 C 261.297 253.065,263.706 255.405,263.792 255.319 C 263.878 255.233,263.360 252.560,262.641 249.379 C 261.922 246.198,261.333 243.426,261.333 243.220 C 261.333 243.014,262.473 242.598,263.867 242.296 C 266.971 241.623,267.733 241.532,267.733 241.834 M243.866 249.350 C 244.493 252.369,244.297 252.540,238.982 253.619 C 233.943 254.642,233.754 254.799,234.449 257.389 L 234.750 258.510 238.842 257.540 C 241.092 257.006,242.974 256.562,243.023 256.552 C 243.262 256.503,244.158 261.611,243.966 261.922 C 243.844 262.118,242.842 262.441,241.739 262.639 C 240.636 262.837,238.859 263.226,237.791 263.504 L 235.849 264.010 236.397 266.168 C 236.701 267.367,237.209 268.225,237.539 268.100 C 240.534 266.966,247.073 266.030,247.474 266.678 C 247.977 267.493,248.697 270.947,248.421 271.224 C 248.142 271.503,231.755 275.122,231.572 274.945 C 231.252 274.635,226.155 251.001,226.363 250.793 C 226.697 250.459,242.338 247.026,242.918 247.159 C 243.202 247.225,243.629 248.211,243.866 249.350 M223.306 254.332 L 223.820 256.931 218.544 258.109 L 213.268 259.287 213.629 260.977 C 213.828 261.906,214.053 262.736,214.128 262.822 C 214.204 262.907,215.999 262.582,218.118 262.100 C 222.432 261.119,222.677 261.228,223.184 264.355 L 223.545 266.576 219.459 267.486 L 215.372 268.395 215.734 270.331 C 216.211 272.885,215.799 272.796,221.435 271.555 C 227.025 270.324,226.983 270.310,227.460 273.600 L 227.809 276.000 219.462 277.779 C 214.871 278.758,211.020 279.464,210.904 279.348 C 210.718 279.162,206.013 258.007,205.716 256.022 C 205.629 255.437,207.456 254.819,213.067 253.535 C 223.147 251.229,222.685 251.193,223.306 254.332 M193.059 259.196 C 194.168 259.789,194.727 261.328,196.020 267.342 C 197.451 273.994,196.838 274.823,189.270 276.484 L 185.206 277.375 185.948 280.916 C 186.356 282.863,186.505 284.629,186.278 284.839 C 185.789 285.293,180.635 286.412,180.349 286.127 C 180.023 285.800,174.914 262.242,175.124 262.032 C 176.352 260.803,191.567 258.397,193.059 259.196 M169.266 263.974 C 171.161 264.695,171.550 265.672,173.621 274.914 C 176.399 287.314,176.469 287.162,166.995 289.298 C 156.894 291.575,157.013 291.667,154.378 279.513 C 151.662 266.989,151.662 266.988,161.333 264.853 C 168.470 263.277,167.665 263.366,169.266 263.974 M185.467 265.220 C 183.665 265.572,182.937 265.968,182.946 266.591 C 182.961 267.634,183.822 271.467,184.105 271.750 C 184.436 272.081,189.606 270.625,189.526 270.223 C 189.485 270.017,189.291 268.778,189.095 267.470 C 188.665 264.605,188.651 264.596,185.467 265.220 M161.682 270.499 C 159.661 270.950,159.403 271.165,159.669 272.175 C 159.837 272.812,160.504 275.814,161.153 278.846 L 162.331 284.358 164.700 284.003 C 167.812 283.536,168.641 283.189,168.377 282.465 C 168.257 282.136,167.604 279.167,166.927 275.867 C 165.578 269.303,165.839 269.570,161.682 270.499 M278.750 277.733 C 278.560 280.593,278.404 286.425,278.403 290.693 L 278.400 298.453 275.187 299.117 C 271.167 299.947,271.677 300.393,268.308 293.106 C 264.714 285.334,264.533 285.382,264.533 294.113 L 264.533 301.292 262.533 301.802 C 261.433 302.083,259.813 302.451,258.933 302.620 L 257.333 302.928 252.000 291.664 C 249.067 285.469,246.601 280.233,246.520 280.028 C 246.379 279.668,251.068 278.400,252.541 278.400 C 252.982 278.400,254.384 281.283,256.101 285.720 L 258.933 293.039 259.239 285.288 C 259.593 276.300,259.520 276.500,262.655 276.030 C 263.976 275.831,265.223 275.624,265.425 275.568 C 265.628 275.512,267.423 278.707,269.416 282.667 L 273.038 289.867 272.720 282.400 C 272.545 278.293,272.372 274.716,272.335 274.451 C 272.297 274.186,273.467 273.674,274.933 273.315 C 279.402 272.218,279.136 271.909,278.750 277.733 M246.804 290.924 C 249.859 304.869,249.951 304.633,240.672 306.658 C 230.687 308.837,230.762 308.904,227.696 295.067 C 226.446 289.420,225.571 284.651,225.753 284.469 C 225.935 284.287,227.412 283.829,229.035 283.452 L 231.986 282.766 232.490 284.716 C 232.767 285.789,233.647 289.787,234.444 293.600 C 236.117 301.598,236.074 301.518,238.498 301.063 C 241.915 300.422,241.882 300.688,239.746 290.954 C 238.669 286.048,237.944 281.876,238.135 281.684 C 238.556 281.259,243.263 280.092,243.976 280.236 C 244.256 280.293,245.529 285.103,246.804 290.924 M221.038 287.067 C 222.188 288.078,222.696 289.607,224.268 296.782 C 227.099 309.703,227.164 309.556,217.662 311.698 C 207.569 313.973,207.719 314.086,205.070 302.259 C 202.266 289.745,202.411 289.273,209.523 287.731 C 211.765 287.245,214.320 286.649,215.200 286.405 C 217.969 285.640,219.630 285.828,221.038 287.067 M198.671 292.271 C 199.571 293.266,201.558 300.736,201.587 303.233 C 201.594 303.837,201.120 304.847,200.533 305.477 C 199.173 306.937,199.041 306.532,202.133 310.400 C 205.440 314.536,205.446 314.457,201.759 315.222 L 198.717 315.854 197.089 314.060 C 196.193 313.074,194.829 311.454,194.059 310.460 C 192.921 308.992,192.409 308.716,191.329 308.987 L 190.000 309.320 190.933 313.333 L 191.866 317.347 190.466 317.658 C 189.697 317.830,188.240 318.180,187.230 318.437 C 186.220 318.694,185.314 318.825,185.217 318.728 C 184.808 318.320,179.795 294.694,180.060 294.427 C 181.966 292.508,197.280 290.734,198.671 292.271 M212.389 292.937 C 210.692 293.348,210.173 293.708,210.352 294.345 C 210.485 294.815,211.131 297.720,211.789 300.800 C 212.447 303.880,213.045 306.481,213.117 306.580 C 213.856 307.589,219.164 305.376,218.865 304.185 C 218.680 303.448,218.015 300.527,217.386 297.694 C 216.136 292.058,216.110 292.033,212.389 292.937 M177.431 298.267 C 177.257 300.100,176.850 305.440,176.527 310.133 C 175.723 321.798,176.069 320.889,172.130 321.702 C 170.298 322.081,168.613 322.392,168.384 322.395 C 168.155 322.398,165.115 317.304,161.630 311.075 L 155.292 299.750 157.246 299.252 C 158.321 298.978,159.938 298.605,160.840 298.422 L 162.480 298.090 166.173 305.795 C 170.502 314.827,170.577 314.796,170.629 303.924 L 170.667 296.115 173.200 295.587 C 177.943 294.599,177.788 294.501,177.431 298.267 M190.165 297.666 C 187.491 298.293,187.615 298.061,188.286 301.191 L 188.861 303.872 191.529 303.269 C 192.996 302.938,194.209 302.483,194.224 302.258 C 194.239 302.033,194.090 300.773,193.893 299.458 C 193.513 296.920,193.460 296.894,190.165 297.666 " stroke="none" fill="#ffffff" fill-rule="evenodd"></path><path id="path2" d="M253.602 71.505 C 248.042 74.918,248.136 75.473,254.852 78.894 C 257.676 80.332,257.377 80.699,258.079 74.933 C 258.975 67.574,259.433 67.925,253.602 71.505 M214.105 114.267 C 205.050 128.420,191.568 149.467,184.144 161.037 C 176.721 172.607,170.711 182.253,170.790 182.473 C 170.931 182.866,190.639 195.648,191.793 196.095 C 192.290 196.287,251.119 105.155,252.029 102.785 C 252.250 102.208,251.788 101.897,250.299 101.622 C 245.601 100.754,239.613 97.296,235.064 92.827 C 232.661 90.465,230.667 88.533,230.632 88.533 C 230.597 88.533,223.160 100.113,214.105 114.267 M274.773 273.593 C 272.334 274.170,272.432 273.688,272.964 282.469 C 273.228 286.831,273.365 290.495,273.267 290.611 C 273.119 290.787,266.454 277.490,265.980 276.072 C 265.895 275.818,264.455 275.895,262.780 276.243 L 259.733 276.876 259.733 285.403 C 259.733 295.492,259.660 295.504,256.000 286.022 C 254.439 281.976,253.116 278.603,253.060 278.524 C 252.948 278.365,247.321 279.565,246.987 279.820 C 246.389 280.275,257.399 302.388,258.226 302.394 C 258.717 302.397,260.331 302.120,261.812 301.778 L 264.506 301.156 264.653 293.378 L 264.800 285.600 268.162 292.517 C 272.147 300.716,271.404 299.804,273.630 299.237 C 274.640 298.980,276.127 298.622,276.933 298.442 L 278.400 298.113 278.400 285.590 C 278.400 271.677,278.698 272.663,274.773 273.593 M240.109 281.160 C 238.324 281.559,237.879 281.871,238.094 282.570 C 238.417 283.622,241.622 298.572,241.767 299.709 C 241.897 300.722,236.323 302.107,235.964 301.151 C 235.836 300.811,234.891 296.712,233.863 292.041 C 231.660 282.033,232.244 282.949,228.585 283.768 C 225.997 284.348,225.652 284.573,225.868 285.549 C 231.438 310.779,230.029 308.795,240.663 306.394 C 250.131 304.257,250.023 304.948,244.530 281.733 C 244.222 280.429,243.688 280.360,240.109 281.160 M210.425 287.720 C 202.289 289.606,202.414 289.280,205.116 301.482 C 207.850 313.831,207.609 313.646,217.985 311.409 C 226.861 309.496,226.779 309.675,224.240 297.799 C 221.509 285.024,221.640 285.120,210.425 287.720 M187.299 292.792 C 183.686 293.617,180.587 294.435,180.411 294.611 C 179.971 295.052,185.112 318.400,185.649 318.400 C 186.844 318.400,191.466 317.198,191.458 316.889 C 191.454 316.693,191.102 315.093,190.677 313.333 C 189.647 309.065,189.658 308.964,191.225 308.665 C 192.385 308.443,193.027 308.943,195.608 312.081 C 197.272 314.104,198.924 315.647,199.279 315.510 C 199.634 315.374,200.841 315.097,201.962 314.895 C 203.083 314.692,204.179 314.424,204.398 314.299 C 204.617 314.175,203.441 312.394,201.784 310.343 C 198.789 306.637,198.778 306.609,199.919 305.810 C 201.344 304.812,201.417 302.480,200.192 297.057 C 198.727 290.570,198.036 290.341,187.299 292.792 M216.533 292.553 C 216.533 292.710,217.156 295.615,217.917 299.009 C 219.467 305.915,219.462 305.928,215.662 306.428 L 212.923 306.788 211.840 302.061 C 209.773 293.048,209.775 293.464,211.813 292.877 C 213.813 292.302,216.533 292.115,216.533 292.553 M175.200 295.459 C 174.320 295.696,172.946 296.037,172.146 296.218 L 170.692 296.547 170.546 305.740 L 170.400 314.933 166.440 306.800 C 163.419 300.594,162.243 298.667,161.476 298.667 C 160.508 298.667,155.733 299.748,155.733 299.968 C 155.733 300.229,167.621 321.379,167.989 321.773 C 168.439 322.255,174.812 321.161,175.198 320.536 C 175.329 320.324,175.801 315.376,176.246 309.542 C 176.691 303.707,177.154 298.033,177.277 296.933 C 177.399 295.833,177.341 294.955,177.149 294.981 C 176.957 295.008,176.080 295.223,175.200 295.459 M193.802 298.000 C 193.953 298.513,194.231 299.809,194.421 300.879 L 194.765 302.824 191.971 303.423 C 188.687 304.127,188.706 304.140,187.941 300.747 C 187.356 298.148,187.366 298.113,188.741 297.811 C 189.507 297.644,190.373 297.427,190.667 297.329 C 192.119 296.844,193.553 297.151,193.802 298.000 " stroke="none" fill="#ea4856" fill-rule="evenodd"></path><path id="path3" d="M181.333 24.606 C 56.283 37.413,-13.493 176.787,51.470 284.000 C 121.040 398.815,290.445 392.710,351.085 273.202 C 412.326 152.511,315.598 10.856,181.333 24.606 M220.075 38.068 C 329.025 54.651,388.977 169.541,339.674 267.264 C 287.084 371.503,142.134 384.266,71.686 290.861 C 1.447 197.733,53.061 62.428,167.467 39.772 C 173.276 38.621,176.573 38.126,185.067 37.125 C 189.544 36.598,214.906 37.281,220.075 38.068 M114.285 131.600 C 114.403 131.820,115.763 134.117,117.308 136.705 L 120.117 141.409 121.342 140.258 C 122.582 139.094,126.136 132.891,125.772 132.528 C 125.104 131.859,113.941 130.958,114.285 131.600 M146.971 140.438 C 145.433 145.969,142.525 150.805,138.036 155.296 L 133.938 159.395 152.155 171.114 L 170.372 182.832 171.496 180.883 C 172.114 179.811,175.281 174.803,178.534 169.756 L 184.448 160.578 170.491 151.654 C 162.814 146.747,154.587 141.477,152.208 139.944 L 147.883 137.157 146.971 140.438 M242.558 213.530 C 239.189 214.340,239.222 214.283,237.856 221.715 C 236.484 229.183,237.279 229.240,231.580 221.268 L 228.293 216.670 224.971 217.438 C 223.144 217.860,221.497 218.299,221.311 218.414 C 221.007 218.602,225.968 242.145,226.403 242.581 C 226.581 242.759,232.533 241.535,232.533 241.320 C 232.533 241.260,231.933 238.552,231.200 235.303 C 229.407 227.361,229.405 227.364,233.136 232.727 L 236.406 237.426 238.336 237.065 C 240.731 236.618,240.338 237.393,241.396 231.023 C 242.476 224.520,242.670 224.613,244.267 232.400 C 244.944 235.700,245.689 238.400,245.923 238.400 C 247.097 238.400,251.736 237.198,251.755 236.889 C 251.891 234.662,246.542 212.811,245.874 212.863 C 245.430 212.898,243.938 213.198,242.558 213.530 M208.565 221.023 C 204.329 221.969,200.784 222.982,200.686 223.275 C 200.534 223.730,204.970 245.049,205.566 246.725 C 205.724 247.172,221.809 244.179,222.756 243.527 C 222.806 243.493,222.585 242.325,222.266 240.933 C 221.588 237.969,221.509 237.952,215.294 239.426 C 210.823 240.485,210.830 240.488,210.552 237.632 C 210.413 236.198,210.583 236.022,212.533 235.581 C 213.707 235.316,215.525 234.884,216.575 234.621 L 218.484 234.142 217.930 231.438 C 217.449 229.089,217.233 228.772,216.288 229.026 C 213.844 229.681,209.021 230.531,208.836 230.339 C 208.726 230.226,208.554 229.421,208.452 228.549 L 208.267 226.965 213.226 225.812 C 215.954 225.177,218.277 224.567,218.389 224.456 C 218.846 223.998,217.465 219.204,216.890 219.252 C 216.547 219.281,212.801 220.078,208.565 221.023 M187.843 225.557 C 183.064 226.636,179.127 227.627,179.096 227.759 C 179.065 227.892,179.213 229.163,179.427 230.585 L 179.814 233.170 181.774 232.815 C 182.852 232.620,184.251 232.337,184.883 232.185 C 186.250 231.858,186.075 231.363,188.304 241.867 C 190.301 251.281,189.972 250.746,193.333 250.044 C 197.024 249.274,196.954 249.799,194.721 239.632 L 192.708 230.464 195.421 229.829 C 196.913 229.479,198.274 229.115,198.446 229.019 C 198.981 228.721,197.687 223.463,197.095 223.531 C 196.786 223.566,192.623 224.477,187.843 225.557 M166.933 230.175 C 158.603 232.088,158.062 232.966,160.303 240.921 C 161.292 244.427,161.868 244.723,168.646 245.208 L 174.133 245.600 174.133 247.176 C 174.133 248.583,173.906 248.799,172.023 249.191 C 169.426 249.730,168.533 249.427,168.533 248.007 C 168.533 246.841,168.534 246.841,163.657 248.059 L 161.713 248.544 162.323 250.923 C 163.576 255.807,164.975 256.243,173.472 254.395 C 181.711 252.603,182.237 251.986,180.952 245.600 C 179.852 240.129,179.154 239.606,172.267 239.088 C 166.711 238.670,166.665 238.655,166.502 237.238 C 166.271 235.239,170.595 234.124,171.438 235.964 C 171.716 236.571,171.976 237.127,172.016 237.200 C 172.351 237.813,178.133 235.978,178.130 235.260 C 178.109 229.146,175.859 228.124,166.933 230.175 M263.867 242.296 C 262.473 242.598,261.333 243.014,261.333 243.220 C 261.333 243.426,261.922 246.198,262.641 249.379 C 263.360 252.560,263.878 255.233,263.792 255.319 C 263.706 255.405,261.297 253.065,258.439 250.120 L 253.243 244.764 250.088 245.385 C 248.353 245.726,246.933 246.235,246.933 246.515 C 246.933 247.788,251.900 269.651,252.283 270.064 C 252.526 270.325,253.897 270.243,255.424 269.877 C 258.601 269.115,258.581 269.205,257.066 262.554 C 256.478 259.976,255.875 257.267,255.725 256.533 C 255.526 255.560,257.007 256.839,261.205 261.265 L 266.959 267.330 270.021 266.645 C 272.394 266.114,273.027 265.769,272.833 265.113 C 272.541 264.127,267.733 242.182,267.733 241.834 C 267.733 241.532,266.971 241.623,263.867 242.296 M234.488 248.810 C 230.136 249.783,226.480 250.675,226.363 250.793 C 226.155 251.001,231.252 274.635,231.572 274.945 C 231.755 275.122,248.142 271.503,248.421 271.224 C 248.697 270.947,247.977 267.493,247.474 266.678 C 247.073 266.030,240.534 266.966,237.539 268.100 C 237.209 268.225,236.701 267.367,236.397 266.168 L 235.849 264.010 237.791 263.504 C 238.859 263.226,240.636 262.837,241.739 262.639 C 242.842 262.441,243.844 262.118,243.966 261.922 C 244.158 261.611,243.262 256.503,243.023 256.552 C 242.974 256.562,241.092 257.006,238.842 257.540 L 234.750 258.510 234.449 257.389 C 233.754 254.799,233.943 254.642,238.982 253.619 C 244.297 252.540,244.493 252.369,243.866 249.350 C 243.317 246.709,243.764 246.735,234.488 248.810 M213.067 253.535 C 207.456 254.819,205.629 255.437,205.716 256.022 C 206.013 258.007,210.718 279.162,210.904 279.348 C 211.020 279.464,214.871 278.758,219.462 277.779 L 227.809 276.000 227.460 273.600 C 226.983 270.310,227.025 270.324,221.435 271.555 C 215.799 272.796,216.211 272.885,215.734 270.331 L 215.372 268.395 219.459 267.486 L 223.545 266.576 223.184 264.355 C 222.677 261.228,222.432 261.119,218.118 262.100 C 215.999 262.582,214.204 262.907,214.128 262.822 C 214.053 262.736,213.828 261.906,213.629 260.977 L 213.268 259.287 218.544 258.109 L 223.820 256.931 223.306 254.332 C 222.685 251.193,223.147 251.229,213.067 253.535 M182.192 260.293 C 178.411 261.143,175.230 261.926,175.124 262.032 C 174.914 262.242,180.023 285.800,180.349 286.127 C 180.635 286.412,185.789 285.293,186.278 284.839 C 186.505 284.629,186.356 282.863,185.948 280.916 L 185.206 277.375 189.270 276.484 C 196.838 274.823,197.451 273.994,196.020 267.342 C 193.906 257.510,194.109 257.614,182.192 260.293 M161.333 264.853 C 151.662 266.988,151.662 266.989,154.378 279.513 C 157.013 291.667,156.894 291.575,166.995 289.298 C 176.469 287.162,176.399 287.314,173.621 274.914 C 171.550 265.672,171.161 264.695,169.266 263.974 C 167.665 263.366,168.470 263.277,161.333 264.853 M189.095 267.470 C 189.291 268.778,189.485 270.017,189.526 270.223 C 189.606 270.625,184.436 272.081,184.105 271.750 C 183.822 271.467,182.961 267.634,182.946 266.591 C 182.937 265.968,183.665 265.572,185.467 265.220 C 188.651 264.596,188.665 264.605,189.095 267.470 M166.927 275.867 C 167.604 279.167,168.257 282.136,168.377 282.465 C 168.641 283.189,167.812 283.536,164.700 284.003 L 162.331 284.358 161.153 278.846 C 160.504 275.814,159.837 272.812,159.669 272.175 C 159.403 271.165,159.661 270.950,161.682 270.499 C 165.839 269.570,165.578 269.303,166.927 275.867 M277.703 272.954 C 278.053 273.177,278.428 274.793,278.536 276.546 L 278.732 279.733 278.832 276.133 C 278.920 273.019,278.807 272.534,278.000 272.542 C 277.371 272.547,277.274 272.681,277.703 272.954 M272.679 281.600 C 272.679 282.920,272.783 283.460,272.910 282.800 C 273.037 282.140,273.037 281.060,272.910 280.400 C 272.783 279.740,272.679 280.280,272.679 281.600 M259.097 286.719 C 259.007 290.414,259.113 293.548,259.333 293.684 C 259.553 293.819,259.733 290.795,259.733 286.965 C 259.733 278.077,259.312 277.914,259.097 286.719 M217.200 286.234 C 217.713 286.368,218.553 286.368,219.067 286.234 C 219.580 286.100,219.160 285.990,218.133 285.990 C 217.107 285.990,216.687 286.100,217.200 286.234 M177.190 297.600 C 177.190 298.627,177.300 299.047,177.434 298.533 C 177.568 298.020,177.568 297.180,177.434 296.667 C 177.300 296.153,177.190 296.573,177.190 297.600 M201.190 302.933 C 201.190 303.960,201.300 304.380,201.434 303.867 C 201.568 303.353,201.568 302.513,201.434 302.000 C 201.300 301.487,201.190 301.907,201.190 302.933 M176.657 304.533 C 176.657 305.560,176.767 305.980,176.901 305.467 C 177.035 304.953,177.035 304.113,176.901 303.600 C 176.767 303.087,176.657 303.507,176.657 304.533 M176.124 311.467 C 176.124 312.493,176.233 312.913,176.368 312.400 C 176.502 311.887,176.502 311.047,176.368 310.533 C 176.233 310.020,176.124 310.440,176.124 311.467 M169.979 313.066 C 169.826 313.653,169.918 314.267,170.183 314.431 C 170.449 314.595,170.667 314.115,170.667 313.365 C 170.667 311.731,170.363 311.599,169.979 313.066 M210.006 312.911 C 210.670 313.038,211.630 313.033,212.140 312.900 C 212.649 312.766,212.107 312.662,210.933 312.668 C 209.760 312.674,209.343 312.783,210.006 312.911 M175.590 318.400 C 175.590 319.427,175.700 319.847,175.834 319.333 C 175.968 318.820,175.968 317.980,175.834 317.467 C 175.700 316.953,175.590 317.373,175.590 318.400 " stroke="none" fill="#f49a71" fill-rule="evenodd"></path><path id="path4" d="M194.000 23.863 C 196.420 23.962,200.380 23.962,202.800 23.863 C 205.220 23.765,203.240 23.684,198.400 23.684 C 193.560 23.684,191.580 23.765,194.000 23.863 M183.067 24.368 C 183.580 24.502,184.420 24.502,184.933 24.368 C 185.447 24.233,185.027 24.124,184.000 24.124 C 182.973 24.124,182.553 24.233,183.067 24.368 M211.867 24.368 C 212.380 24.502,213.220 24.502,213.733 24.368 C 214.247 24.233,213.827 24.124,212.800 24.124 C 211.773 24.124,211.353 24.233,211.867 24.368 M76.788 74.000 L 72.267 78.667 76.933 74.145 C 81.268 69.946,81.843 69.333,81.455 69.333 C 81.375 69.333,79.275 71.433,76.788 74.000 M315.733 70.013 C 315.733 70.094,317.593 71.954,319.867 74.147 L 324.000 78.133 320.013 74.000 C 316.311 70.161,315.733 69.623,315.733 70.013 M26.819 185.867 C 26.823 187.333,26.927 187.870,27.049 187.059 C 27.172 186.249,27.169 185.049,27.042 184.393 C 26.916 183.737,26.815 184.400,26.819 185.867 M369.765 187.467 C 369.768 189.227,369.868 189.882,369.987 188.924 C 370.105 187.965,370.103 186.525,369.981 185.724 C 369.859 184.922,369.762 185.707,369.765 187.467 M369.765 203.467 C 369.768 205.227,369.868 205.882,369.987 204.924 C 370.105 203.965,370.103 202.525,369.981 201.724 C 369.859 200.922,369.762 201.707,369.765 203.467 M26.819 204.533 C 26.823 206.000,26.927 206.537,27.049 205.726 C 27.172 204.915,27.169 203.715,27.042 203.059 C 26.916 202.403,26.815 203.067,26.819 204.533 M69.333 308.967 C 69.333 309.059,70.113 309.839,71.067 310.700 L 72.800 312.267 71.234 310.533 C 69.773 308.918,69.333 308.555,69.333 308.967 M324.771 311.333 L 322.933 313.333 324.933 311.495 C 326.795 309.785,327.179 309.333,326.771 309.333 C 326.682 309.333,325.782 310.233,324.771 311.333 M313.833 322.267 L 312.267 324.000 314.000 322.434 C 314.953 321.572,315.733 320.792,315.733 320.700 C 315.733 320.288,315.293 320.651,313.833 322.267 M81.600 321.234 C 81.600 321.325,82.380 322.105,83.333 322.967 L 85.067 324.533 83.500 322.800 C 82.040 321.184,81.600 320.822,81.600 321.234 M186.006 366.777 C 186.670 366.905,187.630 366.900,188.140 366.766 C 188.649 366.633,188.107 366.529,186.933 366.534 C 185.760 366.540,185.343 366.650,186.006 366.777 M208.400 366.776 C 209.060 366.904,210.140 366.904,210.800 366.776 C 211.460 366.649,210.920 366.545,209.600 366.545 C 208.280 366.545,207.740 366.649,208.400 366.776 " stroke="none" fill="#949992" fill-rule="evenodd"></path><path id="path5" d="M385.242 195.467 C 385.244 197.520,385.340 198.295,385.456 197.188 C 385.571 196.082,385.569 194.402,385.452 193.455 C 385.334 192.508,385.239 193.413,385.242 195.467 M65.867 327.467 C 67.608 329.227,69.153 330.667,69.300 330.667 C 69.447 330.667,68.142 329.227,66.400 327.467 C 64.658 325.707,63.113 324.267,62.967 324.267 C 62.820 324.267,64.125 325.707,65.867 327.467 " stroke="none" fill="#152e33" fill-rule="evenodd"></path><path id="path6" d="M330.400 63.467 C 333.028 66.107,335.298 68.267,335.444 68.267 C 335.591 68.267,333.561 66.107,330.933 63.467 C 328.306 60.827,326.036 58.667,325.889 58.667 C 325.742 58.667,327.772 60.827,330.400 63.467 M11.397 195.200 C 11.397 198.280,11.485 199.540,11.593 198.000 C 11.701 196.460,11.701 193.940,11.593 192.400 C 11.485 190.860,11.397 192.120,11.397 195.200 M194.533 382.263 C 196.660 382.364,200.140 382.364,202.267 382.263 C 204.393 382.161,202.653 382.079,198.400 382.079 C 194.147 382.079,192.407 382.161,194.533 382.263 " stroke="none" fill="#2d6969" fill-rule="evenodd"></path><path id="path7" d="M181.333 9.144 C 83.393 18.153,9.808 100.864,11.895 199.596 C 14.547 325.096,138.808 412.382,257.768 372.307 C 363.853 336.569,414.910 216.221,366.962 114.926 C 333.848 44.969,258.523 2.044,181.333 9.144 M219.001 24.773 C 362.218 43.039,421.223 217.986,318.048 318.438 C 227.717 406.386,75.478 369.533,35.559 250.056 C -0.348 142.589,72.762 33.882,187.733 23.786 C 192.726 23.348,212.793 23.981,219.001 24.773 " stroke="none" fill="#5399ab" fill-rule="evenodd"></path></g></svg>